<svg width="43" height="43" viewBox="0 0 43 43" fill="none" xmlns="http://www.w3.org/2000/svg">
<g id="Frame">
<path id="Vector" d="M15.4531 15.2291H7.3906C6.91543 15.2291 6.45971 15.0403 6.1237 14.7043C5.7877 14.3683 5.59894 13.9126 5.59894 13.4374V5.37492C5.59894 4.89974 5.7877 4.44402 6.1237 4.10802C6.45971 3.77202 6.91543 3.58325 7.3906 3.58325C7.86578 3.58325 8.3215 3.77202 8.6575 4.10802C8.99351 4.44402 9.18227 4.89974 9.18227 5.37492V11.6458H15.4531C15.9283 11.6458 16.384 11.8345 16.72 12.1705C17.056 12.5065 17.2448 12.9622 17.2448 13.4374C17.2448 13.9126 17.056 14.3683 16.72 14.7043C16.384 15.0403 15.9283 15.2291 15.4531 15.2291Z" fill="#62B01E"/>
<path id="Vector_2" d="M37.625 23.2916C37.1498 23.2916 36.6941 23.1028 36.3581 22.7668C36.0221 22.4308 35.8333 21.9751 35.8333 21.4999C35.8347 18.3458 34.7949 15.2793 32.8754 12.7765C30.956 10.2736 28.264 8.47431 25.2174 7.65772C22.1708 6.84114 18.9398 7.05295 16.0259 8.2603C13.1119 9.46765 10.678 11.603 9.10166 14.335C8.86359 14.7463 8.4719 15.0462 8.01275 15.1686C7.55361 15.2911 7.06461 15.2262 6.65334 14.9881C6.24208 14.75 5.94222 14.3583 5.81975 13.8992C5.69728 13.4401 5.76222 12.9511 6.00028 12.5398C7.97157 9.1253 11.0146 6.45681 14.6573 4.9483C18.3 3.43979 22.3387 3.17559 26.1468 4.1967C29.955 5.2178 33.3197 7.46712 35.719 10.5957C38.1183 13.7243 39.4181 17.5572 39.4167 21.4999C39.4167 21.9751 39.2279 22.4308 38.8919 22.7668C38.5559 23.1028 38.1002 23.2916 37.625 23.2916ZM35.6094 39.4166C35.1342 39.4166 34.6785 39.2278 34.3425 38.8918C34.0065 38.5558 33.8177 38.1001 33.8177 37.6249V31.3541H27.5469C27.0717 31.3541 26.616 31.1653 26.28 30.8293C25.944 30.4933 25.7552 30.0376 25.7552 29.5624C25.7552 29.0872 25.944 28.6315 26.28 28.2955C26.616 27.9595 27.0717 27.7707 27.5469 27.7707H35.6094C36.0845 27.7707 36.5403 27.9595 36.8763 28.2955C37.2123 28.6315 37.401 29.0872 37.401 29.5624V37.6249C37.401 38.1001 37.2123 38.5558 36.8763 38.8918C36.5403 39.2278 36.0845 39.4166 35.6094 39.4166Z" fill="#62B01E"/>
<path id="Vector_3" d="M21.5 39.4166C16.7499 39.4109 12.1961 37.5214 8.83727 34.1626C5.47847 30.8038 3.589 26.25 3.58331 21.4999C3.58331 21.0247 3.77208 20.569 4.10808 20.233C4.44408 19.897 4.8998 19.7083 5.37498 19.7083C5.85016 19.7083 6.30588 19.897 6.64188 20.233C6.97788 20.569 7.16665 21.0247 7.16665 21.4999C7.16528 24.6541 8.20502 27.7205 10.1245 30.2234C12.044 32.7262 14.7359 34.5255 17.7826 35.3421C20.8292 36.1587 24.0602 35.9469 26.9741 34.7395C29.888 33.5322 32.322 31.3968 33.8983 28.6648C34.0162 28.4612 34.173 28.2827 34.3599 28.1397C34.5467 27.9967 34.7599 27.8918 34.9872 27.8312C35.2146 27.7706 35.4516 27.7553 35.6849 27.7863C35.9181 27.8172 36.143 27.8939 36.3466 28.0117C36.5503 28.1296 36.7287 28.2864 36.8717 28.4733C37.0148 28.6601 37.1196 28.8733 37.1802 29.1006C37.2409 29.328 37.2561 29.565 37.2252 29.7983C37.1942 30.0315 37.1176 30.2564 36.9997 30.46C35.4239 33.1771 33.1637 35.4337 30.4442 37.0052C27.7247 38.5767 24.6409 39.4081 21.5 39.4166Z" fill="#62B01E"/>
</g>
</svg>
