<svg width="45" height="45" viewBox="0 0 45 45" fill="none" xmlns="http://www.w3.org/2000/svg">
<g id="BELL">
<path id="Vector" d="M35.625 25.4737V18.75C35.625 12.7181 31.5281 7.63687 25.9781 6.10875C25.4288 4.725 24.0863 3.75 22.5 3.75C20.9138 3.75 19.5713 4.725 19.0219 6.10875C13.4719 7.63875 9.375 12.7181 9.375 18.75V25.4737L6.17438 28.6744C5.99992 28.8482 5.86157 29.0548 5.76729 29.2823C5.673 29.5098 5.62464 29.7537 5.625 30V33.75C5.625 34.2473 5.82255 34.7242 6.17418 35.0758C6.52581 35.4275 7.00272 35.625 7.5 35.625H37.5C37.9973 35.625 38.4742 35.4275 38.8258 35.0758C39.1775 34.7242 39.375 34.2473 39.375 33.75V30C39.3754 29.7537 39.327 29.5098 39.2327 29.2823C39.1384 29.0548 39.0001 28.8482 38.8256 28.6744L35.625 25.4737ZM35.625 31.875H9.375V30.7762L12.5756 27.5756C12.7501 27.4018 12.8884 27.1952 12.9827 26.9677C13.077 26.7402 13.1254 26.4963 13.125 26.25V18.75C13.125 13.5806 17.3306 9.375 22.5 9.375C27.6694 9.375 31.875 13.5806 31.875 18.75V26.25C31.875 26.7487 32.0719 27.225 32.4244 27.5756L35.625 30.7762V31.875ZM22.5 41.25C23.6612 41.2515 24.794 40.8911 25.7409 40.2191C26.6879 39.547 27.4019 38.5966 27.7838 37.5H17.2163C17.5981 38.5966 18.3121 39.547 19.2591 40.2191C20.206 40.8911 21.3388 41.2515 22.5 41.25Z" fill="black"/>
</g>
</svg>
