<svg width="39" height="39" viewBox="0 0 39 39" fill="none" xmlns="http://www.w3.org/2000/svg">
<g id="Frame" clip-path="url(#clip0_1_68)">
<path id="Vector" d="M38.7959 34.6137C38.7963 35.163 38.6884 35.707 38.4786 36.2147C38.2687 36.7223 37.9609 37.1836 37.5727 37.5723C37.1845 37.9609 36.7235 38.2693 36.2161 38.4797C35.7087 38.6902 35.1649 38.7987 34.6155 38.7989H4.18031C3.63103 38.7986 3.08718 38.6901 2.57983 38.4796C2.07248 38.2691 1.61155 37.9607 1.22338 37.5721C0.835198 37.1835 0.527368 36.7222 0.317461 36.2146C0.107554 35.707 -0.00031948 35.163 7.10706e-07 34.6137V4.18275C-0.000160981 3.07379 0.440134 2.01016 1.22406 1.22578C2.00799 0.4414 3.07135 0.000484745 4.18031 0H34.6149C36.9245 0 38.7952 1.87322 38.7952 4.18275L38.7959 34.6137Z" fill="#1B75BB"/>
<path id="Vector_2" d="M19.4318 8.59826C18.5872 8.59826 17.8626 8.33866 17.2605 7.82009C16.6585 7.30029 16.3587 6.5666 16.3587 5.61537C16.3587 4.75249 16.6658 4.04196 17.2825 3.48804C17.898 2.92985 18.6158 2.65137 19.4324 2.65137C20.2191 2.65137 20.918 2.90426 21.5262 3.40943C22.1349 3.91399 22.4396 4.6489 22.4396 5.61537C22.4396 6.55076 22.1422 7.2814 21.5481 7.80912C20.954 8.33684 20.2483 8.59826 19.4318 8.59826ZM22.4384 14.8815V32.4577C22.4384 33.6753 22.1477 34.5966 21.5707 35.2182C20.9911 35.8404 20.255 36.1536 19.3641 36.1536C18.4732 36.1536 17.7487 35.8349 17.1923 35.1944C16.6353 34.557 16.3581 33.6442 16.3581 32.4577V15.0613C16.3581 13.8578 16.6359 12.9498 17.1923 12.3416C17.7487 11.7329 18.4732 11.43 19.3641 11.43C20.255 11.43 20.9911 11.7329 21.5707 12.3416C22.1483 12.9498 22.4384 13.7981 22.4384 14.8815Z" fill="white"/>
</g>
<defs>
<clipPath id="clip0_1_68">
<rect width="39" height="39" fill="white"/>
</clipPath>
</defs>
</svg>
