<svg width="43" height="43" viewBox="0 0 43 43" fill="none" xmlns="http://www.w3.org/2000/svg">
<path d="M15.4531 15.2291H7.39063C6.91545 15.2291 6.45973 15.0404 6.12373 14.7044C5.78773 14.3684 5.59896 13.9127 5.59896 13.4375V5.37498C5.59896 4.8998 5.78773 4.44408 6.12373 4.10808C6.45973 3.77208 6.91545 3.58331 7.39063 3.58331C7.86581 3.58331 8.32152 3.77208 8.65753 4.10808C8.99353 4.44408 9.18229 4.8998 9.18229 5.37498V11.6458H15.4531C15.9283 11.6458 16.384 11.8346 16.72 12.1706C17.056 12.5066 17.2448 12.9623 17.2448 13.4375C17.2448 13.9127 17.056 14.3684 16.72 14.7044C16.384 15.0404 15.9283 15.2291 15.4531 15.2291Z" fill="#62B01E"/>
<path d="M37.625 23.2916C37.1498 23.2916 36.6941 23.1029 36.3581 22.7669C36.0221 22.4309 35.8333 21.9752 35.8333 21.5C35.8347 18.3458 34.795 15.2794 32.8755 12.7765C30.956 10.2737 28.264 8.47437 25.2174 7.65778C22.1708 6.8412 18.9398 7.05301 16.0259 8.26036C13.1119 9.46771 10.678 11.6031 9.10166 14.3351C8.8636 14.7464 8.47191 15.0462 8.01276 15.1687C7.55361 15.2912 7.06462 15.2262 6.65335 14.9882C6.24208 14.7501 5.94223 14.3584 5.81976 13.8993C5.69729 13.4401 5.76222 12.9511 6.00029 12.5399C7.97158 9.12536 11.0146 6.45687 14.6573 4.94836C18.3 3.43985 22.3387 3.17565 26.1468 4.19676C29.955 5.21786 33.3197 7.46718 35.719 10.5958C38.1183 13.7243 39.4181 17.5573 39.4167 21.5C39.4167 21.9752 39.2279 22.4309 38.8919 22.7669C38.5559 23.1029 38.1002 23.2916 37.625 23.2916ZM35.6094 39.4166C35.1342 39.4166 34.6785 39.2279 34.3425 38.8919C34.0065 38.5559 33.8177 38.1002 33.8177 37.625V31.3541H27.5469C27.0717 31.3541 26.616 31.1654 26.28 30.8294C25.944 30.4934 25.7552 30.0377 25.7552 29.5625C25.7552 29.0873 25.944 28.6316 26.28 28.2956C26.616 27.9596 27.0717 27.7708 27.5469 27.7708H35.6094C36.0846 27.7708 36.5403 27.9596 36.8763 28.2956C37.2123 28.6316 37.401 29.0873 37.401 29.5625V37.625C37.401 38.1002 37.2123 38.5559 36.8763 38.8919C36.5403 39.2279 36.0846 39.4166 35.6094 39.4166Z" fill="#62B01E"/>
<path d="M21.5 39.4166C16.75 39.411 12.1961 37.5215 8.83729 34.1627C5.4785 30.8039 3.58903 26.25 3.58334 21.5C3.58334 21.0248 3.7721 20.5691 4.1081 20.2331C4.44411 19.8971 4.89982 19.7083 5.375 19.7083C5.85018 19.7083 6.3059 19.8971 6.6419 20.2331C6.97791 20.5691 7.16667 21.0248 7.16667 21.5C7.16531 24.6541 8.20505 27.7206 10.1245 30.2234C12.044 32.7263 14.736 34.5256 17.7826 35.3422C20.8292 36.1588 24.0602 35.9469 26.9741 34.7396C29.8881 33.5322 32.322 31.3969 33.8983 28.6649C34.0162 28.4612 34.173 28.2828 34.3599 28.1398C34.5467 27.9967 34.7599 27.8919 34.9872 27.8313C35.2146 27.7706 35.4517 27.7553 35.6849 27.7863C35.9181 27.8173 36.143 27.8939 36.3467 28.0118C36.5503 28.1297 36.7287 28.2865 36.8717 28.4733C37.0148 28.6602 37.1196 28.8733 37.1802 29.1007C37.2409 29.328 37.2562 29.5651 37.2252 29.7984C37.1942 30.0316 37.1176 30.2565 36.9997 30.4601C35.424 33.1771 33.1637 35.4338 30.4442 37.0053C27.7247 38.5767 24.6409 39.4081 21.5 39.4166Z" fill="#62B01E"/>
</svg>
