<svg width="45" height="45" viewBox="0 0 45 45" fill="none" xmlns="http://www.w3.org/2000/svg">
<rect width="45" height="45" fill="#FCE3D1"/>
<path d="M13.5 4.5C13.7265 4.49986 13.9477 4.56809 14.1348 4.69575C14.3219 4.82341 14.4661 5.00456 14.5485 5.2155L22.4235 25.3665C22.5227 25.6422 22.5105 25.9458 22.3893 26.2127C22.2681 26.4795 22.0476 26.6885 21.7746 26.7952C21.5017 26.9019 21.1979 26.8979 20.9278 26.784C20.6578 26.6702 20.4429 26.4554 20.3288 26.1855L18.0113 20.2568H9.01801L6.67351 26.2868C6.5652 26.5648 6.35086 26.7885 6.07764 26.9085C5.80443 27.0286 5.49471 27.0352 5.21663 26.9269C4.93855 26.8186 4.71489 26.6042 4.59484 26.331C4.47479 26.0578 4.4682 25.7481 4.57651 25.47L12.4515 5.21775C12.5336 5.00639 12.6776 4.82476 12.8647 4.69668C13.0518 4.5686 13.2733 4.50004 13.5 4.5ZM13.5045 8.72325L9.89326 18.0068H17.1315L13.5045 8.72325ZM25.875 4.5C26.1734 4.5 26.4595 4.61853 26.6705 4.82951C26.8815 5.04048 27 5.32663 27 5.625V13.5518H27.009C27.5153 12.6383 28.2105 11.925 29.0925 11.4075C29.9858 10.89 30.9825 10.6313 32.0895 10.6313C34.0875 10.6313 35.7008 11.376 36.927 12.8678C38.1555 14.3573 38.7675 16.3418 38.7675 18.8145C38.7675 19.134 38.7585 19.4445 38.7383 19.746L38.6393 19.647C37.9235 18.9288 37.026 18.4187 36.0428 18.171C35.9528 16.6748 35.5545 15.4665 34.8435 14.5395C34.0335 13.4865 32.9265 12.9578 31.527 12.9578C30.177 12.9578 29.0745 13.5 28.2105 14.5868C27.5558 15.4125 27.153 16.4385 27 17.6603V19.9778C27.1193 20.9453 27.396 21.7868 27.8258 22.5045L24.75 25.5825V5.625C24.75 5.32663 24.8685 5.04048 25.0795 4.82951C25.2905 4.61853 25.5766 4.5 25.875 4.5ZM21.24 37.0485C20.9264 36.7351 20.6776 36.3629 20.5078 35.9533C20.3381 35.5437 20.2507 35.1046 20.2507 34.6613C20.2507 34.2179 20.3381 33.7788 20.5078 33.3692C20.6776 32.9596 20.9264 32.5874 21.24 32.274L32.274 21.24C32.5873 20.9262 32.9593 20.6773 33.3689 20.5073C33.7784 20.3374 34.2174 20.2498 34.6608 20.2496C35.1042 20.2494 35.5433 20.3365 35.953 20.5061C36.3627 20.6757 36.7349 20.9243 37.0485 21.2378L41.7623 25.9515C42.0759 26.2649 42.3247 26.6371 42.4944 27.0467C42.6642 27.4563 42.7515 27.8954 42.7515 28.3388C42.7515 28.7821 42.6642 29.2212 42.4944 29.6308C42.3247 30.0404 42.0759 30.4126 41.7623 30.726L31.9838 40.5H37.6785C37.9769 40.5 38.263 40.6185 38.474 40.8295C38.685 41.0405 38.8035 41.3266 38.8035 41.625C38.8035 41.9234 38.685 42.2095 38.474 42.4205C38.263 42.6315 37.9769 42.75 37.6785 42.75H28.4715C28.0061 42.7692 27.5418 42.6892 27.108 42.5196C26.6743 42.3499 26.2804 42.092 25.9515 41.7623L21.2355 37.0485H21.24ZM33.8648 22.8308L25.7693 30.9263L32.0738 37.233L40.1693 29.1353C40.2742 29.0309 40.3575 28.9069 40.4144 28.7703C40.4713 28.6337 40.5007 28.4872 40.5009 28.3392C40.5011 28.1912 40.4721 28.0447 40.4156 27.9079C40.3591 27.7712 40.2761 27.6469 40.1715 27.5423L35.4578 22.8285C35.3531 22.7239 35.2288 22.6409 35.0921 22.5844C34.9553 22.5279 34.8088 22.4989 34.6608 22.4991C34.5128 22.4993 34.3663 22.5287 34.2297 22.5856C34.0931 22.6425 33.9691 22.7258 33.8648 22.8308ZM30.483 38.8238L24.1785 32.5193L22.833 33.8648C22.7279 33.969 22.6445 34.0929 22.5874 34.2294C22.5303 34.3659 22.5007 34.5123 22.5002 34.6603C22.4998 34.8083 22.5286 34.9549 22.5849 35.0917C22.6413 35.2286 22.724 35.353 22.8285 35.4578L27.5423 40.1715C27.6469 40.2765 27.7714 40.3597 27.9083 40.4164C28.0453 40.4731 28.1921 40.5022 28.3404 40.502C28.4886 40.5018 28.6353 40.4723 28.7721 40.4152C28.9089 40.3581 29.0331 40.2745 29.1375 40.1693L30.483 38.8238Z" fill="#F58634"/>
</svg>
