<svg width="48" height="48" viewBox="0 0 48 48" fill="none" xmlns="http://www.w3.org/2000/svg">
<path d="M15 19.5H18V22.5H15V19.5ZM21 19.5H33V22.5H21V19.5ZM15 27H18V30H15V27ZM15 34.5H18V37.5H15V34.5Z" fill="black"/>
<path d="M10.5 42V10.5H15V15H33V10.5H37.5V22.5H40.5V10.5C40.5 9.70435 40.1839 8.94129 39.6213 8.37868C39.0587 7.81607 38.2956 7.5 37.5 7.5H33V6C33 5.20435 32.6839 4.44129 32.1213 3.87868C31.5587 3.31607 30.7956 3 30 3H18C17.2044 3 16.4413 3.31607 15.8787 3.87868C15.3161 4.44129 15 5.20435 15 6V7.5H10.5C9.70435 7.5 8.94129 7.81607 8.37868 8.37868C7.81607 8.94129 7.5 9.70435 7.5 10.5V42C7.5 42.7957 7.81607 43.5587 8.37868 44.1213C8.94129 44.6839 9.70435 45 10.5 45H24V42H10.5ZM18 6H30V12H18V6Z" fill="black"/>
<path d="M27 28.5V32.1195C27.9421 30.5443 29.281 29.2437 30.8828 28.3476C32.4847 27.4515 34.2936 26.9913 36.129 27.0127C37.9643 27.0342 39.7619 27.5367 41.3424 28.4701C42.9228 29.4035 44.2308 30.735 45.1358 32.3319C46.0408 33.9288 46.5112 35.7351 46.4999 37.5705C46.4886 39.406 45.9961 41.2063 45.0716 42.792C44.147 44.3776 42.8227 45.693 41.2309 46.6068C39.6391 47.5207 37.8355 48.0011 36 48V45C37.3526 45.0018 38.6805 44.6378 39.8431 43.9465C41.0057 43.2552 41.9597 42.2623 42.604 41.0731C43.2484 39.8839 43.5592 38.5425 43.5035 37.1911C43.4478 35.8396 43.0276 34.5284 42.2875 33.3962C41.5474 32.2641 40.5149 31.3532 39.2994 30.7599C38.0838 30.1667 36.7305 29.9132 35.3826 30.0263C34.0347 30.1394 32.7426 30.6149 31.6429 31.4025C30.5433 32.1901 29.677 33.2604 29.136 34.5H33V37.5H24V28.5H27Z" fill="black"/>
</svg>
